<svg width="40" height="41" viewBox="0 0 40 41" fill="none" xmlns="http://www.w3.org/2000/svg">
<path id="Vector" d="M28.6497 25.668C26.7509 28.9525 23.5984 30.8359 20 30.8359C16.4016 30.8359 13.2491 28.9525 11.3504 25.668C11.2131 25.4055 11.1825 25.1001 11.265 24.8157C11.3475 24.5312 11.5368 24.2896 11.7932 24.1414C12.0497 23.9931 12.3535 23.9497 12.6412 24.0202C12.9289 24.0906 13.1782 24.2696 13.3372 24.5195C14.8378 27.1112 17.2036 28.5391 20 28.5391C22.7965 28.5391 25.168 27.1112 26.6629 24.5195C26.7347 24.3823 26.8335 24.261 26.9534 24.1629C27.0732 24.0649 27.2117 23.9921 27.3605 23.9489C27.5092 23.9057 27.6652 23.8931 27.819 23.9118C27.9727 23.9305 28.1211 23.9801 28.2552 24.0576C28.3893 24.1351 28.5063 24.2389 28.5993 24.3628C28.6922 24.4868 28.7591 24.6282 28.7959 24.7786C28.8328 24.9291 28.8388 25.0854 28.8137 25.2383C28.7885 25.3911 28.7328 25.5373 28.6497 25.668ZM39.5234 20.5C39.5234 24.3614 38.3784 28.136 36.2332 31.3466C34.0879 34.5573 31.0387 37.0596 27.4713 38.5373C23.9039 40.015 19.9783 40.4016 16.1912 39.6483C12.404 38.895 8.92525 37.0356 6.19485 34.3052C3.46445 31.5748 1.60502 28.096 0.851709 24.3088C0.0983926 20.5217 0.485021 16.5961 1.9627 13.0287C3.44039 9.46126 5.94275 6.41212 9.15337 4.26685C12.364 2.12159 16.1386 0.976563 20 0.976562C25.1761 0.982641 30.1384 3.04152 33.7985 6.70156C37.4585 10.3616 39.5174 15.3239 39.5234 20.5ZM37.2266 20.5C37.2266 17.0929 36.2163 13.7623 34.3234 10.9294C32.4305 8.09654 29.7401 5.88857 26.5923 4.58473C23.4446 3.28089 19.9809 2.93975 16.6393 3.60444C13.2976 4.26913 10.2282 5.9098 7.81899 8.31898C5.40981 10.7282 3.76914 13.7976 3.10445 17.1393C2.43976 20.4809 2.7809 23.9446 4.08474 27.0923C5.38858 30.2401 7.59655 32.9305 10.4294 34.8234C13.2623 36.7162 16.5929 37.7266 20 37.7266C24.5672 37.7215 28.9459 35.9049 32.1754 32.6754C35.4049 29.4459 37.2215 25.0672 37.2266 20.5ZM13.1094 18.5859C13.4879 18.5859 13.858 18.4737 14.1728 18.2634C14.4875 18.053 14.7329 17.7541 14.8777 17.4044C15.0226 17.0546 15.0605 16.6698 14.9867 16.2985C14.9128 15.9272 14.7305 15.5861 14.4628 15.3184C14.1951 15.0507 13.8541 14.8684 13.4828 14.7946C13.1115 14.7207 12.7267 14.7586 12.3769 14.9035C12.0272 15.0484 11.7282 15.2937 11.5179 15.6085C11.3076 15.9232 11.1953 16.2933 11.1953 16.6719C11.1953 17.1795 11.397 17.6664 11.7559 18.0253C12.1149 18.3843 12.6017 18.5859 13.1094 18.5859ZM26.8906 14.7578C26.5121 14.7578 26.142 14.8701 25.8272 15.0804C25.5125 15.2907 25.2671 15.5896 25.1223 15.9394C24.9774 16.2891 24.9395 16.674 25.0134 17.0453C25.0872 17.4166 25.2695 17.7576 25.5372 18.0253C25.8049 18.293 26.1459 18.4753 26.5172 18.5492C26.8885 18.623 27.2734 18.5851 27.6231 18.4402C27.9729 18.2954 28.2718 18.05 28.4821 17.7353C28.6924 17.4205 28.8047 17.0504 28.8047 16.6719C28.8047 16.1642 28.603 15.6774 28.2441 15.3184C27.8851 14.9595 27.3983 14.7578 26.8906 14.7578Z" fill="#86BC25"/>
</svg>
