<svg width="16" height="16" viewBox="0 0 16 16" fill="none" xmlns="http://www.w3.org/2000/svg">
<g id="Group">
<path id="Union" fill-rule="evenodd" clip-rule="evenodd" d="M1.5 7.02637C1.5 4.15645 3.87324 1.80664 6.82974 1.80664C9.78625 1.80664 12.1595 4.15645 12.1595 7.02637C12.1595 9.8963 9.78625 12.2461 6.82974 12.2461C3.87324 12.2461 1.5 9.8963 1.5 7.02637ZM6.82974 0.306641C3.07075 0.306641 0 3.30232 0 7.02637C0 10.7504 3.07075 13.7461 6.82974 13.7461C8.32025 13.7461 9.70255 13.2751 10.8281 12.4745L13.9312 15.5215C14.2267 15.8117 14.7016 15.8073 14.9918 15.5118C15.282 15.2162 15.2777 14.7414 14.9821 14.4512L11.9499 11.4738C13.0129 10.2907 13.6595 8.73523 13.6595 7.02637C13.6595 3.30232 10.5887 0.306641 6.82974 0.306641Z" fill="#212121"/>
</g>
</svg>